<svg class="fill-current inline mx-2" height="40px" viewBox="0 0 500 264" version="1.1" xmlns="http://www.w3.org/2000/svg" xmlns:xlink="http://www.w3.org/1999/xlink" xml:space="preserve" xmlns:serif="http://www.serif.com/" style="fill-rule:evenodd;clip-rule:evenodd;">
    <g transform="matrix(1.06515,0,0,1.06515,-22.3681,-141.647)">
        <path d="M347.59,338.444L173.843,338.444L173.843,307.382L230.974,307.382L173.843,211.771L173.843,164.696L347.592,164.696L347.592,182.994C327.518,199.098 314.67,223.832 314.67,251.569C314.67,279.306 327.518,304.04 347.59,320.145L347.59,338.444" style="fill:rgb(227,228,229);fill-rule:nonzero;"/>
    </g>
    <g transform="matrix(1.06515,0,0,1.06515,-22.3681,-141.647)">
        <path d="M348.592,339.444L172.842,339.444L172.842,307.382L173.343,307.382L173.343,338.944L348.092,338.944L348.092,320.544C348.258,320.675 348.424,320.806 348.592,320.937L348.592,339.444M173.343,210.935L172.842,210.099L172.842,163.697L348.592,163.697L348.592,182.205C348.424,182.335 348.258,182.466 348.092,182.597L348.092,164.197L173.343,164.197L173.343,210.935" style="fill-rule:nonzero;"/>
    </g>
    <g transform="matrix(1.06515,0,0,1.06515,-22.3681,-141.647)">
        <path d="M348.092,338.944L173.343,338.944L173.343,307.382L173.843,307.382L173.843,338.444L347.59,338.444L347.59,320.145C347.756,320.278 347.926,320.412 348.092,320.543L348.092,338.944M173.843,211.771L173.343,210.934L173.343,164.195L348.092,164.195L348.092,182.595C347.926,182.726 347.756,182.861 347.592,182.993L347.592,164.695L173.843,164.695L173.843,211.771M173.343,164.196L173.343,164.696L173.343,164.196" style="fill-rule:nonzero;"/>
    </g>
    <g transform="matrix(1.06515,0,0,1.06515,-22.3681,-141.647)">
        <path d="M172.842,306.383L22.776,306.383L126.767,134.938L172.842,212.047L172.842,306.383" style="fill:rgb(227,228,229);fill-rule:nonzero;"/>
    </g>
    <g transform="matrix(1.06515,0,0,1.06515,-22.3681,-141.647)">
        <path d="M229.212,306.383L173.843,306.383L173.843,213.721L229.212,306.383" style="fill:rgb(203,204,205);fill-rule:nonzero;"/>
    </g>
    <g transform="matrix(1.06515,0,0,1.06515,-22.3681,-141.647)">
        <path d="M173.343,306.383L172.842,306.383L172.842,212.047L173.343,212.884L173.343,306.383" style="fill-rule:nonzero;"/>
    </g>
    <g transform="matrix(1.06515,0,0,1.06515,-22.3681,-141.647)">
        <path d="M173.843,306.383L173.343,306.383L173.343,212.884L173.843,213.721L173.843,306.383" style="fill-rule:nonzero;"/>
    </g>
    <g transform="matrix(1.06515,0,0,1.06515,-22.3681,-141.647)">
        <path d="M172.842,307.383L21,307.383L126.342,133.71L126.773,133L172.842,210.098L172.842,212.047L126.767,134.938L22.776,306.383L172.842,306.383L172.842,307.383M126.77,133.97L126.341,134.226L126.77,133.97" style="fill-rule:nonzero;"/>
    </g>
    <g transform="matrix(1.06515,0,0,1.06515,-22.3681,-141.647)">
        <path d="M230.974,307.383L173.843,307.383L173.843,306.383L229.212,306.383L173.843,213.721L173.843,211.771L230.974,307.383" style="fill-rule:nonzero;"/>
    </g>
    <g transform="matrix(1.06515,0,0,1.06515,-22.3681,-141.647)">
        <path d="M173.343,307.383L172.842,307.383L172.842,306.383L173.343,306.383L173.343,307.383" style="fill-rule:nonzero;"/>
    </g>
    <g transform="matrix(1.06515,0,0,1.06515,-22.3681,-141.647)">
        <path d="M173.843,307.383L173.343,307.383L173.343,306.383L173.843,306.383L173.843,307.383" style="fill-rule:nonzero;"/>
    </g>
    <g transform="matrix(1.06515,0,0,1.06515,-22.3681,-141.647)">
        <path d="M173.343,212.884L172.842,212.047L172.842,210.098L173.343,210.935L173.343,212.884" style="fill-rule:nonzero;"/>
    </g>
    <g transform="matrix(1.06515,0,0,1.06515,-22.3681,-141.647)">
        <path d="M173.843,213.721L173.343,212.884L173.343,210.935L173.843,211.771L173.843,213.721" style="fill-rule:nonzero;"/>
    </g>
    <g transform="matrix(1.06515,0,0,1.06515,-22.3681,-141.647)">
        <path d="M23.964,380.173L41.938,380.173L41.938,377.133L27.574,377.133L27.574,353.041L23.964,353.041L23.964,380.173ZM50.222,380.173L53.946,380.173L56.986,372.003L68.462,372.003L71.426,380.173L75.416,380.173L64.814,353.041L60.824,353.041L50.222,380.173ZM62.724,356.309L62.8,356.309L67.322,368.963L58.126,368.963L62.724,356.309ZM90.046,367.747L98.292,367.747C101.332,367.747 104.182,368.735 104.182,372.268C104.182,375.233 102.206,377.132 99.09,377.132L90.046,377.132L90.046,367.747ZM86.436,380.173L99.546,380.173C104.942,380.173 107.792,376.373 107.792,372.383C107.792,369.039 105.968,366.531 102.624,365.847L102.624,365.771C105.132,364.746 106.652,362.58 106.652,359.692C106.652,357.032 105.246,355.093 103.46,354.03C101.826,353.042 98.672,353.042 96.278,353.042L86.436,353.042L86.436,380.173ZM90.046,356.081L97.266,356.081C100.382,356.081 103.042,356.613 103.042,360.375C103.042,363.225 101.37,364.707 97.266,364.707L90.046,364.707L90.046,356.081ZM120.826,380.173L139.674,380.173L139.674,377.133L124.436,377.133L124.436,367.747L138.534,367.747L138.534,364.707L124.436,364.707L124.436,356.081L139.56,356.081L139.56,353.041L120.826,353.041L120.826,380.173ZM152.403,380.173L170.377,380.173L170.377,377.133L156.013,377.133L156.013,353.041L152.403,353.041L152.403,380.173ZM194.124,380.173L197.734,380.173L197.734,353.041L194.124,353.041L194.124,380.173ZM212.135,380.173L215.555,380.173L215.555,358.4L215.631,358.4L229.805,380.173L233.757,380.173L233.757,353.041L230.337,353.041L230.337,375.043L230.261,375.043L215.973,353.041L212.135,353.041L212.135,380.173ZM247.931,380.173L251.351,380.173L251.351,358.4L251.427,358.4L265.602,380.173L269.553,380.173L269.553,353.041L266.133,353.041L266.133,375.043L266.057,375.043L251.769,353.041L247.931,353.041L247.931,380.173ZM282.244,366.607C282.244,373.979 286.613,380.819 295.24,380.819C303.865,380.819 308.236,373.979 308.236,366.607C308.236,359.235 303.865,352.395 295.24,352.395C286.613,352.396 282.244,359.235 282.244,366.607ZM285.854,366.607C285.854,361.134 288.629,355.434 295.241,355.434C301.853,355.434 304.628,361.134 304.628,366.607C304.628,372.079 301.853,377.779 295.241,377.779C288.629,377.779 285.854,372.079 285.854,366.607ZM341.334,353.041L337.572,353.041L329.744,376.563L329.668,376.563L321.916,353.041L318.002,353.041L327.578,380.173L331.682,380.173L341.334,353.041ZM347.607,380.173L351.33,380.173L354.371,372.003L365.848,372.003L368.811,380.173L372.801,380.173L362.199,353.041L358.209,353.041L347.607,380.173ZM360.109,356.309L360.185,356.309L364.706,368.963L355.511,368.963L360.109,356.309ZM386.488,380.173L390.099,380.173L390.099,356.081L399.142,356.081L399.142,353.041L377.445,353.041L377.445,356.081L386.488,356.081L386.488,380.173ZM410.656,380.173L414.267,380.173L414.267,353.041L410.656,353.041L410.656,380.173ZM427.186,366.607C427.186,373.979 431.557,380.819 440.182,380.819C448.809,380.819 453.178,373.979 453.178,366.607C453.178,359.235 448.809,352.395 440.182,352.395C431.557,352.396 427.186,359.235 427.186,366.607ZM430.797,366.607C430.797,361.134 433.57,355.434 440.182,355.434C446.795,355.434 449.569,361.134 449.569,366.607C449.569,372.079 446.796,377.779 440.182,377.779C433.57,377.779 430.797,372.079 430.797,366.607ZM465.908,380.173L469.328,380.173L469.328,358.4L469.404,358.4L483.578,380.173L487.529,380.173L487.529,353.041L484.109,353.041L484.109,375.043L484.033,375.043L469.746,353.041L465.908,353.041L465.908,380.173Z" style="fill-rule:nonzero;"/>
    </g>
    <g transform="matrix(1.06515,0,0,1.06515,-22.3681,-141.647)">
        <path d="M402.543,338.944L402.543,338.444C382.156,338.444 363.41,331.421 348.592,319.664L348.592,183.476C363.41,171.719 382.156,164.696 402.543,164.696C426.533,164.696 448.25,174.419 463.973,190.14C479.694,205.863 489.418,227.578 489.418,251.569C489.418,275.561 479.693,297.277 463.973,312.998C448.25,328.72 426.535,338.443 402.543,338.443L402.543,338.944" style="fill:rgb(227,228,229);fill-rule:nonzero;"/>
    </g>
    <g transform="matrix(1.06515,0,0,1.06515,-22.3681,-141.647)">
        <path d="M347.59,318.858C345.336,317.013 343.172,315.056 341.113,312.999C325.392,297.277 315.67,275.561 315.67,251.57C315.67,227.579 325.393,205.863 341.113,190.141C343.172,188.083 345.336,186.126 347.592,184.282L347.59,318.858" style="fill:rgb(203,204,205);fill-rule:nonzero;"/>
    </g>
    <g transform="matrix(1.06515,0,0,1.06515,-22.3681,-141.647)">
        <path d="M348.592,319.664C348.422,319.53 348.258,319.399 348.092,319.264L348.092,183.875C348.258,183.741 348.422,183.609 348.592,183.476L348.592,319.664" style="fill-rule:nonzero;"/>
    </g>
    <g transform="matrix(1.06515,0,0,1.06515,-22.3681,-141.647)">
        <path d="M348.092,319.264C347.924,319.13 347.758,318.994 347.59,318.859L347.592,184.282C347.758,184.146 347.924,184.011 348.092,183.876L348.092,319.264" style="fill-rule:nonzero;"/>
    </g>
    <g transform="matrix(1.06515,0,0,1.06515,-22.3681,-141.647)">
        <path d="M402.543,339.444C382.205,339.444 363.482,332.535 348.592,320.936L348.592,320.3C363.446,331.977 382.184,338.944 402.543,338.944L402.543,339.444M402.543,339.444L402.543,338.944C450.799,338.944 489.916,299.825 489.916,251.569C489.916,203.314 450.799,164.195 402.543,164.195C382.184,164.195 363.445,171.162 348.592,182.838L348.592,182.203C363.483,170.603 382.205,163.695 402.543,163.695C451.074,163.695 490.418,203.037 490.418,251.569C490.418,300.101 451.074,339.444 402.543,339.444" style="fill-rule:nonzero;"/>
    </g>
    <g transform="matrix(1.06515,0,0,1.06515,-22.3681,-141.647)">
        <path d="M347.59,320.146C327.518,304.042 314.67,279.307 314.67,251.57C314.67,223.833 327.518,199.099 347.592,182.995L347.592,183.637C327.811,199.656 315.17,224.135 315.17,251.57C315.17,279.005 327.811,303.486 347.59,319.503L347.59,320.146" style="fill-rule:nonzero;"/>
    </g>
    <g transform="matrix(1.06515,0,0,1.06515,-22.3681,-141.647)">
        <path d="M348.592,320.937C348.424,320.806 348.258,320.675 348.092,320.544L348.092,319.905C348.258,320.038 348.424,320.169 348.592,320.301L348.592,320.937M348.092,183.235L348.092,182.596C348.258,182.465 348.424,182.334 348.592,182.204L348.592,182.839C348.424,182.971 348.258,183.102 348.092,183.235" style="fill-rule:nonzero;"/>
    </g>
    <g transform="matrix(1.06515,0,0,1.06515,-22.3681,-141.647)">
        <path d="M348.092,320.544C347.926,320.412 347.756,320.278 347.59,320.146L347.59,319.503C347.756,319.637 347.924,319.773 348.092,319.905L348.092,320.544M347.592,183.637L347.592,182.995C347.756,182.863 347.926,182.728 348.092,182.597L348.092,183.236C347.924,183.368 347.756,183.502 347.592,183.637" style="fill-rule:nonzero;"/>
    </g>
    <g transform="matrix(1.06515,0,0,1.06515,-22.3681,-141.647)">
        <path d="M402.543,338.944C382.184,338.944 363.445,331.977 348.592,320.3L348.592,319.663C363.41,331.42 382.156,338.443 402.543,338.443L402.543,338.944M402.543,338.944L402.543,338.444C426.535,338.444 448.25,328.72 463.973,312.999C479.694,297.277 489.418,275.561 489.418,251.57C489.418,227.579 479.693,205.863 463.973,190.141C448.25,174.419 426.534,164.697 402.543,164.697C382.156,164.697 363.41,171.719 348.592,183.477L348.592,182.84C363.446,171.164 382.184,164.197 402.543,164.197C450.799,164.197 489.916,203.316 489.916,251.571C489.916,299.825 450.799,338.944 402.543,338.944" style="fill-rule:nonzero;"/>
    </g>
    <g transform="matrix(1.06515,0,0,1.06515,-22.3681,-141.647)">
        <path d="M347.59,319.503C327.811,303.485 315.17,279.005 315.17,251.57C315.17,224.135 327.811,199.655 347.592,183.637L347.592,184.282C345.336,186.127 343.172,188.083 341.113,190.141C325.392,205.864 315.67,227.579 315.67,251.57C315.67,275.562 325.393,297.278 341.113,312.999C343.172,315.057 345.336,317.014 347.59,318.858L347.59,319.503" style="fill-rule:nonzero;"/>
    </g>
    <g transform="matrix(1.06515,0,0,1.06515,-22.3681,-141.647)">
        <path d="M348.592,320.301C348.424,320.169 348.258,320.038 348.092,319.905L348.092,319.263C348.258,319.399 348.422,319.53 348.592,319.663L348.592,320.301M348.092,183.875L348.092,183.234C348.258,183.101 348.424,182.97 348.592,182.838L348.592,183.475C348.422,183.609 348.258,183.741 348.092,183.875" style="fill-rule:nonzero;"/>
    </g>
    <g transform="matrix(1.06515,0,0,1.06515,-22.3681,-141.647)">
        <path d="M348.092,319.905C347.924,319.772 347.756,319.636 347.59,319.503L347.59,318.858C347.758,318.994 347.924,319.129 348.092,319.263L348.092,319.905M347.592,184.281L347.592,183.636C347.756,183.502 347.924,183.367 348.092,183.234L348.092,183.875C347.924,184.01 347.758,184.146 347.592,184.281" style="fill-rule:nonzero;"/>
    </g>
    <g transform="matrix(1.06515,0,0,1.06515,-22.3681,-141.647)">
        <path d="M332.225,260.902C332.225,256.627 333.772,254.489 336.864,254.489C338.153,254.489 339.26,254.935 340.184,255.826C341.108,256.718 341.569,257.797 341.569,259.064C341.569,260.333 341.124,261.427 340.233,262.351C339.34,263.275 338.272,263.738 337.026,263.738C336.038,263.738 335.049,263.34 334.061,262.545L334.061,275.823C335.479,275.972 336.553,276.048 337.284,276.048C341.753,276.048 345.62,274.394 348.886,271.085C352.152,267.777 353.784,263.846 353.784,259.29C353.784,254.607 352.141,250.654 348.854,247.431C345.567,244.208 341.526,242.597 336.735,242.597C334.329,242.597 331.983,243.124 329.694,244.176C327.407,245.229 325.522,246.647 324.038,248.43C321.462,251.524 320.173,255.531 320.173,260.451L320.173,287.263L332.226,287.263L332.226,260.902L332.225,260.902ZM373.354,242.565C369.12,242.565 365.737,243.946 363.202,246.706C360.667,249.467 359.399,253.167 359.399,257.809L359.399,275.372L371.452,275.372L371.452,260.128C371.452,256.777 372.548,255.101 374.739,255.101C375.427,255.101 376.19,255.338 377.026,255.81L377.026,242.919C375.521,242.683 374.299,242.565 373.354,242.565ZM380.9,243.242L380.9,275.372L392.953,275.372L392.953,243.242L380.9,243.242ZM382.723,230.625C381.53,231.774 380.934,233.134 380.934,234.702C380.934,236.377 381.498,237.753 382.625,238.827C383.754,239.901 385.197,240.438 386.961,240.438C388.721,240.438 390.166,239.901 391.295,238.827C392.422,237.753 392.986,236.377 392.986,234.702C392.986,233.134 392.39,231.774 391.197,230.625C390.006,229.476 388.592,228.901 386.961,228.901C385.326,228.901 383.914,229.476 382.723,230.625ZM429.023,258.42C429.023,253.78 427.937,250.16 425.767,247.56C422.996,244.23 419.312,242.565 414.714,242.565C410.696,242.565 407.302,243.999 404.53,246.867C401.759,249.735 400.372,253.264 400.372,257.454L400.372,275.372L412.427,275.372L412.427,257.228C412.427,255.379 413.177,254.456 414.681,254.456C416.208,254.456 416.97,255.38 416.97,257.228L416.97,275.372L429.023,275.372L429.023,258.42ZM435.057,231.381L435.057,257.775C435.057,262.351 435.981,266.025 437.828,268.796C439.289,270.967 441.228,272.686 443.646,273.953C446.062,275.22 448.634,275.854 451.363,275.854C451.664,275.854 452.127,275.842 452.75,275.822L452.75,263.157C450.602,263.157 449.123,262.673 448.318,261.706C447.513,260.74 447.109,258.977 447.109,256.421L452.523,256.421L452.523,243.692L447.109,243.692L447.109,231.381L435.057,231.381Z" style="fill:rgb(0,80,157);fill-rule:nonzero;"/>
    </g>
    <g transform="matrix(1.06515,0,0,1.06515,-22.3681,-141.647)">
        <path d="M222.147,264.157C220.858,264.157 219.794,263.726 218.956,262.868C218.118,262.009 217.7,260.913 217.7,259.581C217.7,258.312 218.161,257.217 219.085,256.293C220.009,255.37 221.104,254.908 222.372,254.908C223.769,254.908 224.881,255.413 225.708,256.422C226.535,257.432 226.949,258.786 226.949,260.483L226.949,275.373L239.001,275.373L239.001,259.614C239.001,254.35 237.503,250.199 234.506,247.158C231.509,244.118 227.41,242.598 222.211,242.598C217.549,242.598 213.591,244.221 210.336,247.464C207.081,250.709 205.453,254.662 205.453,259.324C205.453,264.115 207.065,268.099 210.287,271.28C213.51,274.46 217.538,276.049 222.372,276.049C223.189,276.049 224.091,275.963 225.079,275.791L225.079,263.319C224.177,263.878 223.199,264.157 222.147,264.157ZM275.006,258.42C275.006,253.78 273.922,250.16 271.752,247.56C268.981,244.23 265.295,242.565 260.697,242.565C256.679,242.565 253.285,243.999 250.514,246.867C247.742,249.735 246.357,253.264 246.357,257.454L246.357,275.372L258.409,275.372L258.409,257.228C258.409,255.379 259.161,254.456 260.665,254.456C262.191,254.456 262.953,255.38 262.953,257.228L262.953,275.372L275.006,275.372L275.006,258.42ZM302.148,257.711C302.148,261.986 300.601,264.124 297.507,264.124C296.218,264.124 295.111,263.68 294.189,262.787C293.265,261.896 292.802,260.827 292.802,259.581C292.802,258.291 293.247,257.191 294.14,256.277C295.031,255.364 296.101,254.908 297.347,254.908C298.335,254.908 299.322,255.294 300.312,256.068L300.312,242.79C298.871,242.662 297.798,242.597 297.089,242.597C292.618,242.597 288.753,244.252 285.485,247.56C282.221,250.869 280.589,254.79 280.589,259.323C280.589,264.007 282.232,267.959 285.519,271.181C288.806,274.405 292.845,276.015 297.636,276.015C300.042,276.015 302.39,275.489 304.677,274.437C306.966,273.384 308.851,271.966 310.333,270.182C312.911,267.088 314.2,263.082 314.2,258.162L314.2,231.381L302.147,231.381L302.147,257.711L302.148,257.711Z" style="fill:rgb(255,211,0);fill-rule:nonzero;"/>
    </g>
    <g transform="matrix(1.06515,0,0,1.06515,-22.3681,-141.647)">
        <path d="M84.855,243.693C80.666,243.693 77.389,244.842 75.026,247.141C73.672,248.452 72.776,249.773 72.336,251.105C71.895,252.437 71.589,254.747 71.417,258.034C71.288,260.053 70.81,261.466 69.983,262.271C69.155,263.077 67.775,263.48 65.841,263.48L65.293,263.48L65.293,276.242L66.969,276.242C71.115,276.242 74.317,275.575 76.573,274.244C80.827,271.686 83.233,267.305 83.792,261.096C83.964,259.227 84.367,257.975 85,257.341C85.633,256.707 86.799,256.391 88.497,256.391L88.497,243.693L84.855,243.693ZM91.437,231.381L91.437,257.775C91.437,262.351 92.361,266.025 94.208,268.796C95.669,270.967 97.608,272.686 100.025,273.953C102.442,275.22 105.015,275.854 107.743,275.854C108.044,275.854 108.506,275.842 109.129,275.822L109.129,263.157C106.981,263.157 105.504,262.673 104.698,261.706C103.892,260.74 103.49,258.977 103.49,256.421L108.904,256.421L108.904,243.692L103.49,243.692L103.49,231.381L91.437,231.381ZM125.992,290.744C131.084,290.744 135.423,288.788 139.011,284.878C142.019,281.591 143.523,277.274 143.523,271.923L143.523,243.242L131.47,243.242L131.47,260.224C131.47,262.33 130.707,263.382 129.182,263.382C127.592,263.382 126.797,262.427 126.797,260.515L126.797,243.242L114.745,243.242L114.745,263.448C114.745,266.885 115.712,269.716 117.645,271.939C119.578,274.162 122.038,275.275 125.025,275.275C127.044,275.275 129.107,274.652 131.212,273.406C130.052,277.809 127.517,280.011 123.607,280.011C122.382,280.011 120.954,279.667 119.321,278.981L119.321,289.455C121.533,290.314 123.757,290.744 125.992,290.744ZM150.878,231.382L150.878,275.372L162.931,275.372L162.931,231.382L150.878,231.382ZM202.03,259C202.03,254.36 200.445,250.455 197.276,247.286C194.107,244.117 190.191,242.533 185.53,242.533C180.76,242.533 176.737,244.155 173.461,247.399C170.184,250.643 168.546,254.618 168.546,259.323C168.546,264.049 170.168,268.012 173.413,271.214C176.656,274.416 180.664,276.016 185.433,276.016C189.343,276.016 192.899,274.759 196.1,272.246L189.236,263.996C188.118,265.199 186.958,265.8 185.755,265.8C184.273,265.8 183.075,265.156 182.162,263.867C181.249,262.578 180.792,260.89 180.792,258.806C180.792,256.808 181.265,255.17 182.21,253.892C183.156,252.614 184.38,251.974 185.884,251.974C188.14,251.974 189.483,253.166 189.913,255.551L183.789,255.551C183.403,256.582 183.209,257.635 183.209,258.709C183.209,259.483 183.349,260.332 183.628,261.255L201.901,261.255C201.986,260.225 202.03,259.473 202.03,259Z" style="fill:rgb(226,0,26);fill-rule:nonzero;"/>
    </g>
    <g transform="matrix(1.06515,0,0,1.06515,-22.3681,-141.647)">
        <path d="M332.225,260.902C332.225,256.627 333.772,254.489 336.864,254.489C338.153,254.489 339.26,254.935 340.184,255.826C341.108,256.718 341.569,257.797 341.569,259.064C341.569,260.333 341.124,261.427 340.233,262.351C339.34,263.275 338.272,263.738 337.026,263.738C336.038,263.738 335.049,263.34 334.061,262.545L334.061,275.823C335.479,275.972 336.553,276.048 337.284,276.048C341.753,276.048 345.62,274.394 348.886,271.085C352.152,267.777 353.784,263.846 353.784,259.29C353.784,254.607 352.141,250.654 348.854,247.431C345.567,244.208 341.526,242.597 336.735,242.597C334.329,242.597 331.983,243.124 329.694,244.176C327.407,245.229 325.522,246.647 324.038,248.43C321.462,251.524 320.173,255.531 320.173,260.451L320.173,287.263L332.226,287.263L332.226,260.902L332.225,260.902ZM373.354,242.565C369.12,242.565 365.737,243.946 363.202,246.706C360.667,249.467 359.399,253.167 359.399,257.809L359.399,275.372L371.452,275.372L371.452,260.128C371.452,256.777 372.548,255.101 374.739,255.101C375.427,255.101 376.19,255.338 377.026,255.81L377.026,242.919C375.521,242.683 374.299,242.565 373.354,242.565ZM380.9,243.242L380.9,275.372L392.953,275.372L392.953,243.242L380.9,243.242ZM382.723,230.625C381.53,231.774 380.934,233.134 380.934,234.702C380.934,236.377 381.498,237.753 382.625,238.827C383.754,239.901 385.197,240.438 386.961,240.438C388.721,240.438 390.166,239.901 391.295,238.827C392.422,237.753 392.986,236.377 392.986,234.702C392.986,233.134 392.39,231.774 391.197,230.625C390.006,229.476 388.592,228.901 386.961,228.901C385.326,228.901 383.914,229.476 382.723,230.625ZM429.023,258.42C429.023,253.78 427.937,250.16 425.767,247.56C422.996,244.23 419.312,242.565 414.714,242.565C410.696,242.565 407.302,243.999 404.53,246.867C401.759,249.735 400.372,253.264 400.372,257.454L400.372,275.372L412.427,275.372L412.427,257.228C412.427,255.379 413.177,254.456 414.681,254.456C416.208,254.456 416.97,255.38 416.97,257.228L416.97,275.372L429.023,275.372L429.023,258.42ZM435.057,231.381L435.057,257.775C435.057,262.351 435.981,266.025 437.828,268.796C439.289,270.967 441.228,272.686 443.646,273.953C446.062,275.22 448.634,275.854 451.363,275.854C451.664,275.854 452.127,275.842 452.75,275.822L452.75,263.157C450.602,263.157 449.123,262.673 448.318,261.706C447.513,260.74 447.109,258.977 447.109,256.421L452.523,256.421L452.523,243.692L447.109,243.692L447.109,231.381L435.057,231.381Z" style="fill:none;fill-rule:nonzero;stroke:black;stroke-width:0.25px;"/>
    </g>
    <g transform="matrix(1.06515,0,0,1.06515,-22.3681,-141.647)">
        <path d="M222.147,264.157C220.858,264.157 219.794,263.726 218.956,262.868C218.118,262.009 217.7,260.913 217.7,259.581C217.7,258.312 218.161,257.217 219.085,256.293C220.009,255.37 221.104,254.908 222.372,254.908C223.769,254.908 224.881,255.413 225.708,256.422C226.535,257.432 226.949,258.786 226.949,260.483L226.949,275.373L239.001,275.373L239.001,259.614C239.001,254.35 237.503,250.199 234.506,247.158C231.509,244.118 227.41,242.598 222.211,242.598C217.549,242.598 213.591,244.221 210.336,247.464C207.081,250.709 205.453,254.662 205.453,259.324C205.453,264.115 207.065,268.099 210.287,271.28C213.51,274.46 217.538,276.049 222.372,276.049C223.189,276.049 224.091,275.963 225.079,275.791L225.079,263.319C224.177,263.878 223.199,264.157 222.147,264.157ZM275.006,258.42C275.006,253.78 273.922,250.16 271.752,247.56C268.981,244.23 265.295,242.565 260.697,242.565C256.679,242.565 253.285,243.999 250.514,246.867C247.742,249.735 246.357,253.264 246.357,257.454L246.357,275.372L258.409,275.372L258.409,257.228C258.409,255.379 259.161,254.456 260.665,254.456C262.191,254.456 262.953,255.38 262.953,257.228L262.953,275.372L275.006,275.372L275.006,258.42ZM302.148,257.711C302.148,261.986 300.601,264.124 297.507,264.124C296.218,264.124 295.111,263.68 294.189,262.787C293.265,261.896 292.802,260.827 292.802,259.581C292.802,258.291 293.247,257.191 294.14,256.277C295.031,255.364 296.101,254.908 297.347,254.908C298.335,254.908 299.322,255.294 300.312,256.068L300.312,242.79C298.871,242.662 297.798,242.597 297.089,242.597C292.618,242.597 288.753,244.252 285.485,247.56C282.221,250.869 280.589,254.79 280.589,259.323C280.589,264.007 282.232,267.959 285.519,271.181C288.806,274.405 292.845,276.015 297.636,276.015C300.042,276.015 302.39,275.489 304.677,274.437C306.966,273.384 308.851,271.966 310.333,270.182C312.911,267.088 314.2,263.082 314.2,258.162L314.2,231.381L302.147,231.381L302.147,257.711L302.148,257.711Z" style="fill:none;fill-rule:nonzero;stroke:black;stroke-width:0.25px;"/>
    </g>
    <g transform="matrix(1.06515,0,0,1.06515,-22.3681,-141.647)">
        <path d="M84.855,243.693C80.666,243.693 77.389,244.842 75.026,247.141C73.672,248.452 72.776,249.773 72.336,251.105C71.895,252.437 71.589,254.747 71.417,258.034C71.288,260.053 70.81,261.466 69.983,262.271C69.155,263.077 67.775,263.48 65.841,263.48L65.293,263.48L65.293,276.242L66.969,276.242C71.115,276.242 74.317,275.575 76.573,274.244C80.827,271.686 83.233,267.305 83.792,261.096C83.964,259.227 84.367,257.975 85,257.341C85.633,256.707 86.799,256.391 88.497,256.391L88.497,243.693L84.855,243.693ZM91.437,231.381L91.437,257.775C91.437,262.351 92.361,266.025 94.208,268.796C95.669,270.967 97.608,272.686 100.025,273.953C102.442,275.22 105.015,275.854 107.743,275.854C108.044,275.854 108.506,275.842 109.129,275.822L109.129,263.157C106.981,263.157 105.504,262.673 104.698,261.706C103.892,260.74 103.49,258.977 103.49,256.421L108.904,256.421L108.904,243.692L103.49,243.692L103.49,231.381L91.437,231.381ZM125.992,290.744C131.084,290.744 135.423,288.788 139.011,284.878C142.019,281.591 143.523,277.274 143.523,271.923L143.523,243.242L131.47,243.242L131.47,260.224C131.47,262.33 130.707,263.382 129.182,263.382C127.592,263.382 126.797,262.427 126.797,260.515L126.797,243.242L114.745,243.242L114.745,263.448C114.745,266.885 115.712,269.716 117.645,271.939C119.578,274.162 122.038,275.275 125.025,275.275C127.044,275.275 129.107,274.652 131.212,273.406C130.052,277.809 127.517,280.011 123.607,280.011C122.382,280.011 120.954,279.667 119.321,278.981L119.321,289.455C121.533,290.314 123.757,290.744 125.992,290.744ZM150.878,231.382L150.878,275.372L162.931,275.372L162.931,231.382L150.878,231.382ZM202.03,259C202.03,254.36 200.445,250.455 197.276,247.286C194.107,244.117 190.191,242.533 185.53,242.533C180.76,242.533 176.737,244.155 173.461,247.399C170.184,250.643 168.546,254.618 168.546,259.323C168.546,264.049 170.168,268.012 173.413,271.214C176.656,274.416 180.664,276.016 185.433,276.016C189.343,276.016 192.899,274.759 196.1,272.246L189.236,263.996C188.118,265.199 186.958,265.8 185.755,265.8C184.273,265.8 183.075,265.156 182.162,263.867C181.249,262.578 180.792,260.89 180.792,258.806C180.792,256.808 181.265,255.17 182.21,253.892C183.156,252.614 184.38,251.974 185.884,251.974C188.14,251.974 189.483,253.166 189.913,255.551L183.789,255.551C183.403,256.582 183.209,257.635 183.209,258.709C183.209,259.483 183.349,260.332 183.628,261.255L201.901,261.255C201.986,260.225 202.03,259.473 202.03,259Z" style="fill:none;fill-rule:nonzero;stroke:black;stroke-width:0.25px;"/>
    </g>
</svg>
